<?xml version="1.0" encoding="UTF-8"?>
<svg xmlns="http://www.w3.org/2000/svg" width="64" height="64" viewBox="0 0 64 64" fill="none">
  <g clip-path="url(#clip0_2644_8410)">
    <path d="M64 0H0V64H64V0Z" fill="#1A1A1A"></path>
    <path d="M37.7444 44.5555H42.88L43.8511 46.9333H47.8066L42.1377 33.5244H38.58L32.9111 46.9333H36.7911L37.7422 44.5555H37.7444ZM40.3311 37.8978L41.8155 41.6822H38.8288L40.3311 37.8978ZM25.5377 40.1511C25.5377 36.2822 22.76 33.5222 17.9711 33.5222H12.8V46.9311H17.8955C22.7222 46.9311 25.54 44.0578 25.54 40.1889V40.1511H25.5377ZM21.7266 40.2467C21.7266 42.4111 20.2511 43.6378 18.0288 43.6378H16.5155V36.8178H18.0288C20.2511 36.8178 21.7266 38.0622 21.7266 40.2089V40.2467ZM54.9 38.6355C53.1044 38.2289 52.66 37.9689 52.66 37.3755V37.3378C52.66 36.8756 53.0866 36.5044 53.9555 36.5044C55.1044 36.5044 56.4 36.9489 57.5866 37.7822L59.3822 35.2444C57.9755 34.1156 56.2511 33.5222 54.0488 33.5222C50.9377 33.5222 49.0288 35.2622 49.0288 37.6711V37.7089C49.0288 40.3755 51.1577 41.1533 53.9177 41.7844C55.6777 42.1911 56.1044 42.4889 56.1044 43.0244V43.0622C56.1044 43.6178 55.5866 43.9511 54.6222 43.9511C53.1222 43.9511 51.6955 43.4133 50.4177 42.3955L48.4177 44.7844C50.0111 46.2111 52.1955 46.9333 54.4933 46.9333C57.6422 46.9333 59.7355 45.36 59.7355 42.7111V42.6733C59.7355 40.2467 57.8844 39.2844 54.9022 38.6355H54.9ZM31 33.5244H27.2644V34.8711H31V33.5244ZM31 35.72H27.2644V46.9333H31V35.72ZM12.8022 52.2355H14.0822V55.4667H15.2644V52.2355H16.5444V51.2H12.8022V52.2355ZM19.62 53.7844H21.6688V52.8511H19.62V52.2044H21.8822V51.1978H18.4511V55.4644H21.9133V54.4578H19.6222V53.7822L19.62 53.7844ZM27.8688 51.2H26.4666L24.9977 52.9311V51.2H23.8155V55.4667H24.9977V54.3644L25.4311 53.8822L26.5044 55.4667H27.9244L26.2533 53.0356L27.8688 51.2ZM32.6866 53.4556L30.9311 51.2H29.8288V55.4667H31V53.1267L32.8222 55.4667H33.8577V51.2H32.6866V53.4556ZM37.9777 51.2C36.7111 51.2 35.7622 52.1556 35.7622 53.3333V53.3444C35.7622 54.5222 36.7 55.4667 37.9666 55.4667C39.2333 55.4667 40.1822 54.5111 40.1822 53.3333V53.3222C40.1822 52.1444 39.2444 51.2 37.9777 51.2ZM39.02 53.3444C39.02 53.9356 38.6044 54.44 37.9777 54.44C37.3511 54.44 36.9288 53.9244 36.9288 53.3333V53.3222C36.9288 52.7311 37.3444 52.2267 37.9666 52.2267C38.5888 52.2267 39.0222 52.7422 39.0222 53.3333V53.3444H39.02ZM43.2666 51.2H42.0844V55.4667H45.3333V54.4311H43.2666V51.2ZM49.4533 51.2C48.1866 51.2 47.2377 52.1556 47.2377 53.3333V53.3444C47.2377 54.5222 48.1755 55.4667 49.4422 55.4667C50.7088 55.4667 51.6577 54.5111 51.6577 53.3333V53.3222C51.6577 52.1444 50.72 51.2 49.4533 51.2ZM50.4955 53.3444C50.4955 53.9356 50.08 54.44 49.4533 54.44C48.8266 54.44 48.4044 53.9244 48.4044 53.3333V53.3222C48.4044 52.7311 48.82 52.2267 49.4422 52.2267C50.0644 52.2267 50.4977 52.7422 50.4977 53.3333V53.3444H50.4955ZM55.4422 53.8533C55.4422 54.2422 55.2555 54.44 54.9622 54.44C54.7044 54.44 54.5133 54.2955 54.3088 54.0511L53.56 54.7578C53.8533 55.16 54.3022 55.4644 55.0333 55.4644C55.5133 55.4644 55.9088 55.3155 56.1844 55.04C56.4666 54.7578 56.5977 54.3867 56.5977 53.86V51.2H55.4422V53.8556V53.8533ZM58.5044 51.7311H59.7333V51.1978H58.5044V51.7311ZM58.5044 55.4644H59.7333V52.1111H58.5044V55.4644Z" fill="white"></path>
  </g>
  <defs>
    <clipPath id="clip0_2644_8410">
      <rect width="64" height="64" fill="white"></rect>
    </clipPath>
  </defs>
</svg>
